<svg xmlns="http://www.w3.org/2000/svg" xmlns:xlink="http://www.w3.org/1999/xlink" width="32" height="32" id="analysis"><defs><linearGradient id="a"><stop offset="0" stop-color="#000092"></stop><stop offset="1" stop-color="#ff00f3"></stop></linearGradient><linearGradient id="b" x1="1.988" x2="28" y1="16.001" y2="16.001" gradientUnits="userSpaceOnUse" xlink:href="#a"></linearGradient></defs><path style="line-height:normal;text-indent:0;text-align:start;text-decoration-line:none;text-decoration-style:solid;text-decoration-color:#000;text-transform:none;block-progression:tb;isolation:auto;mix-blend-mode:normal" fill="url(#b)" fill-rule="evenodd" d="M2.498 1.988a.5.5 0 0 0-.492.506v26.87a.5.5 0 0 0 .142.497.5.5 0 0 0 .489.135h26.869a.5.5 0 1 0 0-1h-26.5V2.494a.5.5 0 0 0-.508-.506zm26.016 6.026c-.823 0-1.5.677-1.5 1.5 0 .257.073.496.19.709l-7.116 7.906a1.474 1.474 0 0 0-1.217.035l-3.01-3.01c.095-.195.153-.41.153-.64 0-.823-.678-1.5-1.5-1.5-.823 0-1.5.677-1.5 1.5 0 .199.041.388.113.562l-6.895 6.131a1.473 1.473 0 0 0-.718-.193c-.823 0-1.5.677-1.5 1.5 0 .822.677 1.5 1.5 1.5.822 0 1.5-.678 1.5-1.5a1.48 1.48 0 0 0-.114-.563l6.897-6.13c.214.118.456.193.717.193.23 0 .445-.059.64-.153l3.012 3.012a1.475 1.475 0 0 0-.152.64c0 .823.677 1.5 1.5 1.5.822 0 1.5-.677 1.5-1.5 0-.257-.073-.498-.19-.71l7.117-7.907c.177.074.37.118.573.118.822 0 1.5-.678 1.5-1.5 0-.823-.678-1.5-1.5-1.5zm0 1c.282 0 .5.218.5.5 0 .282-.218.5-.5.5a.493.493 0 0 1-.5-.5c0-.282.218-.5.5-.5zm-14 5c.282 0 .5.218.5.5 0 .282-.218.5-.5.5a.494.494 0 0 1-.33-.13.5.5 0 0 0-.059-.066.493.493 0 0 1 .389-.805zm5 5c.282 0 .5.218.5.5 0 .282-.218.5-.5.5a.493.493 0 0 1-.5-.5c0-.282.218-.5.5-.5zm-14 3c.14 0 .265.053.355.142.09.09.145.217.145.358 0 .282-.218.5-.5.5a.493.493 0 0 1-.5-.5c0-.282.218-.5.5-.5z" color="#000" font-family="sans-serif" font-weight="400" overflow="visible"></path></svg>