<svg xmlns="http://www.w3.org/2000/svg" viewBox="0 0 32 32" id="food-order"><rect width="19" height="29" x="6.5" y="1.5" fill="#faf7f5" rx="2" ry="2"></rect><path d="M23.5 31h-15A2.5 2.5 0 0 1 6 28.5v-25A2.5 2.5 0 0 1 8.5 1h15A2.5 2.5 0 0 1 26 3.5v25a2.5 2.5 0 0 1-2.5 2.5ZM8.5 2A1.5 1.5 0 0 0 7 3.5v25A1.5 1.5 0 0 0 8.5 30h15a1.5 1.5 0 0 0 1.5-1.5v-25A1.5 1.5 0 0 0 23.5 2Z"></path><path d="M17 4.5h-2a.5.5 0 0 1 0-1h2a.5.5 0 0 1 0 1Z"></path><path fill="#80b6ff" d="M25.5 28.5v-3h-19v3a2 2 0 0 0 2 2h15a2 2 0 0 0 2-2Z"></path><path d="M23.5 31h-15A2.5 2.5 0 0 1 6 28.5v-3a.5.5 0 0 1 .5-.5h19a.5.5 0 0 1 .5.5v3a2.5 2.5 0 0 1-2.5 2.5ZM7 26v2.5A1.5 1.5 0 0 0 8.5 30h15a1.5 1.5 0 0 0 1.5-1.5V26Z"></path><path d="M17.5 28.5h-3a.5.5 0 0 1 0-1h3a.5.5 0 0 1 0 1zm-1.5-18a.5.5 0 0 1-.5-.5V7a.5.5 0 0 1 1 0v3a.5.5 0 0 1-.5.5z"></path><path fill="#ff7b79" d="M22 16H10l-1-2h14l-1 2z"></path><path d="M22 16.5H10a.51.51 0 0 1-.45-.28l-1-2a.51.51 0 0 1 0-.48.52.52 0 0 1 .45-.24h14a.52.52 0 0 1 .43.24.51.51 0 0 1 0 .48l-1 2a.51.51 0 0 1-.43.28Zm-11.69-1h11.38l.5-1H9.81Z"></path><path fill="#ffa96b" d="M16 8a5 5 0 0 1 5 5v1H11v-1a5 5 0 0 1 5-5Z"></path><path d="M21 14.5H11a.5.5 0 0 1-.5-.5v-1a5.5 5.5 0 0 1 11 0v1a.5.5 0 0 1-.5.5Zm-9.5-1h9V13a4.5 4.5 0 0 0-9 0Z"></path><rect width="10" height="3" x="11" y="19.5" fill="#7dd9c2" rx="1.5" ry="1.5"></rect><path d="M19.5 23h-7a2 2 0 0 1 0-4h7a2 2 0 0 1 0 4Zm-7-3a1 1 0 0 0 0 2h7a1 1 0 0 0 0-2Z"></path></svg>