<svg xmlns="http://www.w3.org/2000/svg" width="32" height="32" id="food"><g stroke-linecap="round" stroke-linejoin="round" transform="translate(2223.996 -961.068)"><path fill="#faa41a" stroke="#383747" d="M-2216.14 969.958c0 1.631-.552 3.08-2.811 3.12-2.26.041-3.085-1.697-2.93-3.534.155-1.838 1.604-4.543 2.93-4.533 1.326.011 2.965 3.109 2.81 4.947z"></path><path fill="none" stroke="#383747" d="M-2219.015 973.41v6.203"></path><path fill="#faa41a" stroke="#383747" d="M-2218.989 979.613c.294 0 .674.275.674.568 0 2.52.26 5.501.26 8.117 0 .415-.518.828-.934.827-.44 0-.985-.44-.985-.879 0-3.071.311-5.229.311-8.065 0-.293.38-.568.674-.568z"></path><path fill="none" stroke="#383747" d="M-2194.093 968.462v3.619c0 .729-.589 1.316-1.32 1.316-.731 0-1.32-.587-1.32-1.316v-3.62m1.322 4.933v-5.675m.005 5.67v6.204"></path><path fill="#faa41a" stroke="#383747" d="M-2195.38 979.593c.294 0 .674.276.674.57 0 2.52.259 5.5.259 8.115 0 .415-.517.828-.933.828-.441 0-.986-.44-.986-.88 0-3.07.312-5.228.312-8.064 0-.293.38-.569.674-.569z"></path><ellipse cx="-2207.315" cy="976.596" fill="none" stroke="#383747" rx="6.896" ry="6.876"></ellipse><ellipse cx="-2207.315" cy="976.596" fill="#faa41a" stroke="#383747" rx="4.407" ry="4.394"></ellipse><path fill="none" stroke="#fff" d="M-2207.339 973.925a2.679 2.67 0 0 1 2.69 2.403"></path></g></svg>